<svg width="992" height="296" viewBox="0 0 992 296" fill="none" xmlns="http://www.w3.org/2000/svg">
<path fill-rule="evenodd" clip-rule="evenodd" d="M79.68 64.56C80.5333 61.7867 82.4533 59.8667 85.44 58.8C88.4266 57.52 92.8 56.88 98.56 56.88H240.64C244.844 56.88 248.534 57.3642 251.71 58.3327C251.713 58.3335 251.716 58.3344 251.718 58.3353C253.864 58.9904 255.775 59.8668 257.45 60.9644C257.948 61.2901 258.424 61.6353 258.88 62C262.082 64.4395 264.139 67.5328 265.053 71.28C265.418 72.7758 265.6 74.3758 265.6 76.08C265.6 79.0667 265.173 81.9467 264.32 84.72L256 114.48C255.629 115.859 255.198 117.139 254.708 118.32C254.331 119.23 253.919 120.081 253.471 120.873C252.162 123.19 250.551 125.006 248.64 126.32C245.227 128.667 240.747 129.84 235.2 129.84C235.145 129.84 235.089 129.84 235.034 129.84C229.778 129.818 225.567 128.751 222.4 126.64C220.888 125.531 219.566 124.112 218.435 122.384C218.329 122.222 218.225 122.058 218.123 121.891C217.003 120.065 216.082 117.914 215.36 115.44L210.24 97.2C209.387 94 208.32 91.8667 207.04 90.8C205.76 89.7334 203.093 89.2 199.04 89.2H167.04L149.12 152.56H155.2C158.187 152.56 160.747 152.133 162.88 151.28C165.227 150.427 167.68 148.827 170.24 146.48L180.16 138.16C183.787 134.96 186.987 132.72 189.76 131.44C191.498 130.571 193.272 129.955 195.082 129.592C196.382 129.331 197.702 129.2 199.04 129.2C203.093 129.2 206.4 130.373 208.96 132.72C211.046 134.485 212.347 136.793 212.864 139.643C212.927 139.991 212.979 140.348 213.019 140.712C213.086 141.331 213.12 141.974 213.12 142.64C213.12 144.292 212.82 146.244 212.221 148.495C212.201 148.57 212.18 148.645 212.16 148.72L198.08 197.36C194.88 207.813 189.12 213.04 180.8 213.04C173.973 213.04 168.64 209.52 164.8 202.48L159.04 191.6C158.691 190.903 158.348 190.263 158.011 189.682C156.905 187.775 155.861 186.494 154.88 185.84C153.6 184.987 151.68 184.56 149.12 184.56H139.84L126.4 232.24C125.973 233.52 125.76 235.227 125.76 237.36C125.76 240.347 126.4 242.8 127.68 244.72C129.173 246.64 131.307 248.667 134.08 250.8C136.427 252.72 138.027 254.32 138.88 255.6C139.733 256.667 140.16 258.053 140.16 259.76C140.16 263.6 138.453 266.267 135.04 267.76C131.781 269.186 127.063 269.931 120.886 269.995C120.594 269.998 120.298 270 120 270H39.68C34.1333 270 29.9733 269.04 27.2 267.12C24.4266 264.987 23.4666 262.107 24.32 258.48C24.7466 256.56 25.6 255.067 26.88 254C27.9466 252.72 29.6533 251.333 32 249.84C35.6266 247.707 38.5066 245.467 40.64 243.12C42.7733 240.773 44.48 237.147 45.76 232.24L85.12 94.32C85.9733 91.5467 86.4 88.9867 86.4 86.64C86.4 84.08 85.9733 81.9467 85.12 80.24C84.48 78.5333 83.4133 76.72 81.92 74.8C80 72.0267 79.04 69.7867 79.04 68.08C79.04 67.44 79.2533 66.2667 79.68 64.56ZM9.79261 237.11C12.8544 233.846 16.3003 231.383 19.115 229.592L19.4694 229.367L19.8315 229.154C20.8907 228.531 21.622 228.019 22.103 227.648C22.2295 227.278 22.3775 226.794 22.5371 226.182L22.6062 225.917L61.9375 88.0978C59.4445 84.4488 55.04 77.2132 55.04 68.08C55.04 64.1562 55.9992 60.3259 56.3703 58.8438L56.5523 58.1159L56.7413 57.5019C59.9658 47.0221 67.615 39.9074 76.6553 36.4612C83.9267 33.5084 91.8804 32.88 98.56 32.88H240.64C248.677 32.88 257.358 34.1294 265.375 37.9487C266.471 37.0687 267.625 36.2346 268.837 35.4503L269.096 35.2824L269.36 35.1213C277.134 30.3705 285.764 28.08 294.675 28.08C295.203 28.08 295.731 28.0881 296.259 28.1045C297.995 24.3134 300.24 20.6793 303.052 17.2748L303.085 17.2351L303.118 17.1956C311.903 6.65308 324.075 0.880005 337.875 0.880005C348.159 0.880005 358.288 4.54223 366.042 12.7101C370.605 17.3821 373.478 22.7297 375.117 28.2011C384.234 28.8708 393.899 32.4036 401.217 40.941C406.794 47.4474 409.803 55.0844 410.611 62.9974C413.587 60.3701 416.694 57.9011 419.935 55.5974C443.492 38.6455 469.538 29.68 497.575 29.68C512.093 29.68 525.89 31.8435 538.545 36.7328C544.4 38.9952 550.008 41.7366 555.362 44.9392C559.923 41.7166 564.548 38.895 569.108 36.8685L569.324 36.7725L569.542 36.6808C576.866 33.5968 584.56 32.24 592.295 32.24C600.999 32.24 610.764 34.1554 619.288 40.4063C619.772 40.7612 620.242 41.1241 620.7 41.4948C623.242 39.4677 626.1 37.8106 629.205 36.5691C636.624 33.4937 644.862 32.88 651.692 32.88H726.892C733.118 32.88 741.361 33.7696 748.96 38.2262C752.781 40.3129 756.833 43.4838 759.982 48.2072C762.246 51.6032 763.651 55.2176 764.373 58.8113L774.015 50.4793L774.11 50.3988C780.548 44.9514 787.462 40.1297 794.763 36.9294C802.446 33.3479 810.636 31.6 819.052 31.6C833.682 31.6 847.288 36.5267 858.112 46.9638C859.782 48.5745 861.311 50.2564 862.704 52.0009C865.936 42.7231 870.913 34.2179 878.15 27.0767C892.109 13.3034 910.769 8.24001 930.127 8.24001C944.955 8.24001 960.041 11.4287 972.171 21.06C985.174 31.2022 991.247 45.6478 991.247 61.36C991.247 76.2465 986.072 90.9893 978.325 104.984L978.293 105.041L928.183 194.409C926.886 196.868 925.397 199.402 923.673 201.879C931.277 211.302 935.247 222.669 935.247 235.12C935.247 245.428 932.366 255.074 927.409 263.772C922.434 272.884 915.4 280.292 906.781 285.927L906.683 285.991L906.585 286.055C897.086 292.134 886.446 294.96 875.407 294.96C860.875 294.96 847.684 289.658 837.317 279.291C835.969 277.943 834.705 276.548 833.526 275.108C830.651 280.256 826.437 284.468 821.456 287.521C812.196 293.315 800.761 294 792.812 294H750.892C737.62 294 723.046 291.245 711.728 281.342L711.328 280.991L710.943 280.623C709.028 278.792 707.27 276.814 705.653 274.719C702 281.92 695.987 287.322 688.667 290.459L687.984 290.752L687.285 291.002C680.334 293.484 672.512 294 665.772 294H590.572C584.165 294 575.62 293.058 567.839 288.253C561.463 284.415 555.896 278.195 553.605 269.973C548.246 274.008 542.469 277.762 536.328 281.258L536.275 281.288L536.221 281.318C518.571 291.246 498.859 295.92 477.735 295.92C456.815 295.92 437.197 292.045 419.337 283.781C401.13 275.357 386.253 262.764 375.206 246.193L375.078 246.002L374.954 245.808C363.735 228.26 358.695 207.896 358.695 185.84C358.695 175.654 359.858 165.196 362.064 154.508C356.893 156.42 351.445 157.36 345.875 157.36C335.417 157.36 326.438 153.738 319.341 147.739C311.801 153.311 302.573 157.36 291.795 157.36C281.501 157.36 272.351 153.405 265.224 146.787L264.573 146.182L263.968 145.531C263.842 145.395 263.716 145.258 263.592 145.121C263.151 145.453 262.699 145.779 262.237 146.097C253.809 151.891 244.299 153.779 235.628 153.839C235.526 154.245 235.421 154.644 235.314 155.035L235.265 155.215L221.082 204.21L221.029 204.385C218.652 212.149 214.61 220.431 207.488 226.893C199.867 233.808 190.469 237.04 180.8 237.04C169.461 237.04 160.145 232.777 153.053 226.145L150.945 233.625C153.279 235.644 156.023 238.295 158.288 241.473C162.79 247.545 164.16 254.257 164.16 259.76C164.16 265.282 162.901 271.63 159.094 277.577C155.256 283.574 149.93 287.442 144.66 289.748C136.71 293.226 127.752 294 120 294H39.68C32.1057 294 22.1635 292.823 13.5389 286.853L13.044 286.51L12.5669 286.143C7.98482 282.618 3.84482 277.589 1.63156 270.949C-0.525007 264.48 -0.261568 258.259 0.925002 253.124C2.16768 247.647 4.88244 241.863 9.79261 237.11ZM278.264 123.768C278.952 125.768 280.049 127.578 281.555 129.2C284.542 131.973 287.955 133.36 291.795 133.36C296.402 133.36 301.01 131.586 305.617 128.037C306.77 127.149 307.922 126.15 309.075 125.04C315.048 119.493 320.168 111.6 324.435 101.36C324.862 110.747 326.888 118.427 330.515 124.4C332.117 126.892 333.942 128.864 335.99 130.317C338.85 132.346 342.145 133.36 345.875 133.36C350.355 133.36 354.408 132.187 358.035 129.84C361.875 127.28 364.542 123.44 366.035 118.32C366.583 116.311 366.896 114.458 366.975 112.761C366.988 112.476 366.995 112.196 366.995 111.92C366.995 102.533 360.275 95.3867 346.835 90.48C357.075 90.48 365.715 89.0933 372.755 86.32C375.198 85.2837 377.319 84.0933 379.12 82.7488C382.509 80.2184 384.76 77.1421 385.875 73.52C386.515 71.6 386.835 69.5733 386.835 67.44C386.835 63.1733 385.555 59.5467 382.995 56.56C381.15 54.407 378.694 53.03 375.629 52.429C374.443 52.1963 373.164 52.08 371.795 52.08C369.393 52.08 366.991 52.4153 364.588 53.086C364.358 53.1502 364.128 53.2175 363.898 53.2878C361.837 53.9183 359.776 54.7957 357.715 55.92C355.686 57.0266 353.578 58.3724 351.39 59.9573C351.361 59.9776 351.333 59.998 351.305 60.0184C348.457 62.0877 345.473 64.5616 342.355 67.44C344.062 64.88 345.875 61.7867 347.795 58.16C349.715 54.32 350.995 51.3333 351.635 49.2C351.957 48.2338 352.218 47.2373 352.419 46.2104C352.75 44.5163 352.915 42.7395 352.915 40.88C352.915 37.6067 352.298 34.808 351.064 32.4841C350.448 31.3246 349.678 30.2832 348.755 29.36C345.982 26.3733 342.355 24.88 337.875 24.88C331.262 24.88 325.822 27.44 321.555 32.56C320.829 33.4387 320.168 34.3584 319.572 35.3192C318.567 36.9403 317.747 38.6783 317.111 40.5331C316.744 41.6053 316.439 42.7165 316.195 43.8668C315.715 46.133 315.475 48.5507 315.475 51.12C315.475 54.32 315.795 57.52 316.435 60.72L317.715 67.12C316.265 64.9449 314.796 63.0201 313.307 61.3456C311.292 59.0783 309.241 57.2698 307.155 55.92C303.742 53.36 299.582 52.08 294.675 52.08C293.589 52.08 292.525 52.1429 291.484 52.2686C288.787 52.5945 286.244 53.3427 283.854 54.5131C283.182 54.8421 282.522 55.2044 281.875 55.6C278.248 57.9467 275.795 61.36 274.515 65.84C273.875 67.76 273.555 69.5733 273.555 71.28C273.555 72.969 273.812 74.569 274.326 76.08C274.622 76.9481 275.002 77.7868 275.468 78.5961C276.852 81.0042 278.988 83.1522 281.875 85.04C283.728 86.2513 285.854 87.2604 288.254 88.0671C293.039 89.6757 298.913 90.48 305.875 90.48C297.555 93.2533 290.728 96.7733 285.395 101.04C285.072 101.298 284.76 101.562 284.457 101.83C281.803 104.186 279.897 106.96 278.739 110.154C277.843 112.625 277.395 115.347 277.395 118.32C277.395 118.985 277.429 119.634 277.496 120.267C277.504 120.344 277.513 120.421 277.522 120.497C277.659 121.638 277.906 122.729 278.264 123.768ZM577.452 257.52C576.812 259.013 576.492 260.4 576.492 261.68C576.492 264.24 577.772 266.267 580.332 267.76C582.679 269.253 586.092 270 590.572 270H665.772C671.746 270 676.226 269.467 679.212 268.4C682.199 267.12 684.119 264.987 684.972 262C685.399 260.293 685.612 259.227 685.612 258.8C685.612 257.093 684.652 254.853 682.732 252.08C681.239 250.16 680.066 248.347 679.212 246.64C678.572 244.933 678.252 242.8 678.252 240.24C678.252 237.68 678.679 235.013 679.532 232.24L690.092 194.16L699.372 186.48L715.372 240.24C718.572 250.907 722.626 258.587 727.532 263.28C732.652 267.76 740.439 270 750.892 270H792.812C800.492 270 805.826 269.04 808.812 267.12C812.012 265.2 813.612 262.533 813.612 259.12C813.612 257.2 813.079 255.6 812.012 254.32C811.159 252.827 809.559 250.907 807.212 248.56C804.012 245.36 801.239 242.16 798.892 238.96C796.759 235.76 794.732 231.493 792.812 226.16L761.772 134.32L789.292 111.28C789.293 111.28 789.293 111.281 789.294 111.281C789.56 111.607 789.827 111.926 790.095 112.239C793.696 116.441 797.482 119.535 801.452 121.52C805.719 123.653 810.839 124.72 816.812 124.72C825.986 124.72 833.879 121.307 840.492 114.48C847.106 107.653 850.412 98.6933 850.412 87.6C850.412 77.7867 847.426 70 841.452 64.24C835.479 58.48 828.012 55.6 819.052 55.6C813.932 55.6 809.132 56.6667 804.652 58.8C800.172 60.72 795.159 64.0267 789.612 68.72L704.812 142L718.252 94.32C719.746 89.4133 721.559 85.7867 723.692 83.44C724.496 82.5564 725.39 81.7031 726.374 80.88C726.487 80.7859 726.601 80.6922 726.716 80.5988C726.774 80.5513 726.833 80.5038 726.892 80.4565C728.4 79.2511 730.106 78.1123 732.012 77.04C732.439 76.6133 733.079 76.1867 733.932 75.76C734.999 75.12 736.066 74.2667 737.132 73.2C738.412 71.92 739.372 70.5333 740.012 69.04C740.652 67.3333 740.972 65.9467 740.972 64.88C740.972 62.32 739.692 60.4 737.132 59.12C734.786 57.6267 731.372 56.88 726.892 56.88H651.692C645.719 56.88 641.239 57.52 638.252 58.8C635.946 59.687 634.304 61.1641 633.325 63.2313C633.127 63.65 632.956 64.0929 632.812 64.56C632.386 66.2667 632.172 67.44 632.172 68.08C632.172 68.6587 632.283 69.2987 632.504 70C632.773 70.8546 633.205 71.8002 633.802 72.8369C634.16 73.4585 634.577 74.1129 635.052 74.8C636.332 76.9333 637.292 78.8533 637.932 80.56C638.786 82.0533 639.212 83.9733 639.212 86.32C639.212 88.88 638.786 91.5467 637.932 94.32L598.892 232.24C597.399 237.36 595.586 241.093 593.452 243.44C592.599 244.293 591.643 245.147 590.585 246C590.581 246.003 590.577 246.007 590.572 246.01C590.511 246.06 590.449 246.109 590.387 246.159C588.847 247.386 587.096 248.613 585.132 249.84C584.706 250.053 583.532 250.8 581.612 252.08C579.692 253.36 578.306 255.173 577.452 257.52ZM585.628 190.984L594.086 161.104C586.554 165.562 578.322 166.64 571.815 166.64C560.037 166.64 549.016 162.263 540.607 153.359L540.137 152.862L539.697 152.339C534.236 145.854 529.272 136.804 524.655 126.953C522.375 122.505 520.473 119.135 518.94 116.699C518.929 116.681 518.918 116.664 518.907 116.646C517.691 117.617 515.888 119.376 513.62 122.42L513.552 122.511L513.483 122.602C507.863 129.997 501.514 143.003 495.245 163.42C495.245 163.422 495.244 163.423 495.244 163.425C490.051 180.402 487.975 193.001 487.975 201.84C487.975 205.359 488.284 207.828 488.644 209.457C493.598 209.171 496.063 207.971 497.252 207.138L497.402 207.033L497.555 206.93C502.126 203.833 507.378 199.207 513.237 192.615L513.326 192.515L513.416 192.416C517.865 187.522 522.144 183.147 525.985 179.937C532.109 174.779 540.272 170.8 550.055 170.8C562.168 170.8 571.721 176.827 578.27 182.721C580.754 184.956 583.351 187.715 585.628 190.984ZM541.415 198.32C538.855 200.453 535.442 203.867 531.175 208.56C524.348 216.24 517.628 222.32 511.015 226.8C504.615 231.28 496.402 233.52 486.375 233.52C479.548 233.52 474.108 230.96 470.055 225.84C466.002 220.507 463.975 212.507 463.975 201.84C463.975 189.68 466.748 174.533 472.295 156.4C478.908 134.853 486.268 118.747 494.375 108.08C502.482 97.2 510.908 91.76 519.655 91.76C525.842 91.76 530.535 93.36 533.735 96.56C536.935 99.76 541.095 106.373 546.215 116.4C550.695 126 554.642 132.827 558.055 136.88C561.682 140.72 566.268 142.64 571.815 142.64C577.148 142.64 581.095 141.467 583.655 139.12C586.428 136.773 588.775 132.72 590.695 126.96L608.615 77.04C608.805 76.5177 608.974 75.9955 609.121 75.4732C609.637 73.6488 609.895 71.8244 609.895 70C609.895 69.3366 609.86 68.6966 609.79 68.08C609.606 66.4616 609.18 65.0043 608.512 63.7081C607.716 62.1632 606.577 60.8471 605.095 59.76C601.895 57.4133 597.628 56.24 592.295 56.24C587.388 56.24 582.908 57.0933 578.855 58.8C575.015 60.5067 570.215 63.6 564.455 68.08L555.815 74.8C547.922 67.9733 539.282 62.7467 529.895 59.12C520.508 55.4933 509.735 53.68 497.575 53.68C474.962 53.68 453.735 60.8267 433.895 75.12C414.055 89.2 399.228 112.24 389.415 144.24C384.935 159.173 382.695 173.04 382.695 185.84C382.695 204.187 386.855 219.867 395.175 232.88C403.708 245.68 415.122 255.387 429.415 262C443.708 268.613 459.815 271.92 477.735 271.92C495.228 271.92 510.802 268.08 524.455 260.4C538.322 252.507 549.095 243.653 556.775 233.84C564.668 224.027 568.508 216.773 568.295 212.08C568.508 208.24 566.482 204.4 562.215 200.56C557.948 196.72 553.895 194.8 550.055 194.8C547.068 194.8 544.188 195.973 541.415 198.32ZM789.892 142.563C790.166 142.707 790.442 142.848 790.719 142.986C799.052 147.153 808.031 148.72 816.812 148.72C831.727 148.72 844.982 143.253 855.599 133.278L853.669 180.34C853.669 180.342 853.669 180.344 853.669 180.347C853.571 182.651 853.596 185.221 853.873 187.933C852.304 188.759 850.763 189.665 849.251 190.649C840.544 196.244 833.59 203.736 828.676 212.862C825.79 218.222 823.672 223.895 822.471 229.82C820.979 228.224 819.706 226.709 818.627 225.279C817.928 224.137 816.813 221.941 815.469 218.238L789.892 142.563ZM862.287 210.8C856.954 214.213 852.794 218.693 849.807 224.24C846.821 229.787 845.327 235.44 845.327 241.2C845.541 249.52 848.527 256.56 854.287 262.32C860.047 268.08 867.087 270.96 875.407 270.96C882.234 270.96 888.314 269.253 893.647 265.84C899.194 262.213 903.461 257.627 906.447 252.08C909.647 246.533 911.247 240.88 911.247 235.12C911.247 228.357 909.274 222.439 905.327 217.368C904.418 216.2 903.405 215.078 902.287 214C898.592 210.304 894.325 207.794 889.487 206.47C886.786 205.73 883.906 205.36 880.847 205.36C874.554 205.36 868.805 206.901 863.599 209.983C863.158 210.244 862.721 210.517 862.287 210.8ZM904.919 186.744C905.65 185.591 906.373 184.329 907.087 182.96L957.327 93.36C963.941 81.4133 967.247 70.7467 967.247 61.36C967.247 52.1867 963.941 45.04 957.327 39.92C950.927 34.8 941.861 32.24 930.127 32.24C899.407 32.24 883.301 48.1333 881.807 79.92L877.647 181.36C877.646 181.388 877.645 181.415 877.644 181.443C877.426 186.865 878.494 190.813 880.847 193.287C882.822 195.362 885.702 196.4 889.487 196.4C893.327 196.4 896.527 195.44 899.087 193.52C901.087 191.982 903.031 189.723 904.919 186.744Z" fill="black"/>
</svg>
