<svg width="401" height="105" viewBox="0 0 401 105" fill="none" xmlns="http://www.w3.org/2000/svg">
<path d="M92.3448 13.5589C95.6894 13.5589 98.2656 14.2821 100.073 15.7284C101.972 17.1747 102.921 19.1633 102.921 21.6943C102.921 22.9598 102.74 24.1801 102.378 25.3552L98.8531 37.965C98.2204 40.3152 97.1809 41.9875 95.7346 42.9818C94.2883 43.9761 92.39 44.4733 90.0398 44.4733C87.78 44.4733 85.9721 44.0213 84.6163 43.1174C83.2604 42.1231 82.266 40.5412 81.6333 38.3718L79.4639 30.6432C79.1023 29.2873 78.6503 28.3834 78.108 27.9314C77.5656 27.4794 76.4357 27.2535 74.7182 27.2535H61.1593L53.5663 54.1002H56.1425C57.408 54.1002 58.4927 53.9194 59.3966 53.5578C60.391 53.1962 61.4305 52.5183 62.5152 51.524L66.7185 47.9986C68.2551 46.6427 69.611 45.6936 70.7861 45.1512C72.0516 44.5185 73.3623 44.2021 74.7182 44.2021C76.4357 44.2021 77.8368 44.6993 78.9215 45.6936C80.0966 46.6879 80.6842 48.089 80.6842 49.8969C80.6842 50.62 80.5486 51.4788 80.2774 52.4731L74.3115 73.0827C72.9556 77.5119 70.515 79.7265 66.9896 79.7265C64.0971 79.7265 61.8372 78.2351 60.2102 75.2521L57.7696 70.6421C57.1368 69.3766 56.5493 68.563 56.0069 68.2014C55.4645 67.8399 54.651 67.6591 53.5663 67.6591H49.6342L43.9395 87.8619C43.7587 88.4043 43.6683 89.1274 43.6683 90.0313C43.6683 91.2968 43.9395 92.3363 44.4818 93.1499C45.1146 93.9634 46.0185 94.8221 47.1936 95.7261C48.1879 96.5396 48.8659 97.2176 49.2274 97.7599C49.589 98.2119 49.7698 98.7994 49.7698 99.5226C49.7698 101.15 49.0467 102.28 47.6004 102.912C46.1541 103.545 44.0298 103.861 41.2277 103.861H7.19474C4.84452 103.861 3.08186 103.455 1.90676 102.641C0.731648 101.737 0.32488 100.517 0.686451 98.9802C0.867237 98.1667 1.22881 97.5339 1.77117 97.082C2.22313 96.5396 2.94627 95.9521 3.9406 95.3193C5.47728 94.4154 6.69758 93.4663 7.60151 92.4719C8.50544 91.4776 9.22858 89.9409 9.77094 87.8619L26.4484 29.4229C26.81 28.2478 26.9908 27.1631 26.9908 26.1687C26.9908 25.084 26.81 24.1801 26.4484 23.457C26.1772 22.7338 25.7253 21.9655 25.0925 21.1519C24.279 19.9768 23.8722 19.0277 23.8722 18.3046C23.8722 18.0334 23.9626 17.5362 24.1434 16.8131C24.505 15.638 25.3185 14.8244 26.584 14.3725C27.8495 13.8301 29.7026 13.5589 32.1432 13.5589H92.3448Z" fill="white"/>
<path d="M153.883 20.6096C153.16 22.9598 151.307 24.7677 148.324 26.0332C145.341 27.2083 141.68 27.7958 137.341 27.7958C143.036 29.8748 145.884 32.903 145.884 36.8803C145.884 37.6938 145.748 38.5978 145.477 39.5921C144.844 41.7615 143.714 43.3886 142.087 44.4733C140.55 45.4676 138.833 45.9648 136.935 45.9648C134.223 45.9648 132.053 44.6993 130.426 42.1683C128.89 39.6373 128.031 36.3831 127.85 32.4059C126.042 36.7447 123.873 40.0892 121.342 42.4395C118.901 44.7897 116.461 45.9648 114.02 45.9648C112.393 45.9648 110.947 45.3772 109.681 44.2021C108.506 42.9366 107.919 41.3999 107.919 39.5921C107.919 36.5187 109.048 34.0781 111.308 32.2703C113.568 30.4624 116.461 28.9709 119.986 27.7958C115.557 27.7958 112.167 27.0275 109.817 25.4908C107.467 23.9541 106.291 22.0107 106.291 19.6605C106.291 18.9373 106.427 18.169 106.698 17.3554C107.241 15.4572 108.28 14.0109 109.817 13.0166C111.444 12.0223 113.252 11.5251 115.24 11.5251C117.319 11.5251 119.082 12.0674 120.528 13.1522C122.065 14.1465 123.557 15.7284 125.003 17.8978C124.912 17.4458 124.732 16.5419 124.46 15.186C124.189 13.8301 124.054 12.4742 124.054 11.1183C124.054 7.95457 124.912 5.33318 126.63 3.25414C128.438 1.08471 130.743 0 133.545 0C135.443 0 136.98 0.632749 138.155 1.89825C139.33 3.07336 139.918 4.70043 139.918 6.77947C139.918 8.04497 139.737 9.22008 139.375 10.3048C139.104 11.2087 138.562 12.4742 137.748 14.1013C136.935 15.638 136.166 16.9487 135.443 18.0334C137.793 15.864 139.963 14.2369 141.951 13.1522C143.94 12.0674 145.929 11.5251 147.917 11.5251C149.996 11.5251 151.578 12.1578 152.663 13.4233C153.748 14.6888 154.29 16.2255 154.29 18.0334C154.29 18.9373 154.155 19.796 153.883 20.6096Z" fill="white"/>
<path d="M192.806 104.675C185.213 104.675 178.388 103.274 172.332 100.472C166.276 97.6695 161.44 93.5567 157.824 88.1331C154.299 82.6191 152.536 75.9752 152.536 68.2014C152.536 62.7779 153.485 56.9023 155.383 50.5748C159.541 37.0159 165.824 27.2535 174.23 21.2875C182.637 15.2312 191.631 12.203 201.212 12.203C206.365 12.203 210.93 12.9714 214.907 14.5081C218.884 16.0447 222.545 18.2594 225.89 21.1519L229.551 18.3046C231.991 16.4063 234.025 15.0956 235.652 14.3725C237.37 13.6493 239.268 13.2878 241.347 13.2878C243.607 13.2878 245.415 13.7849 246.771 14.7792C248.126 15.7736 248.804 17.2198 248.804 19.1181C248.804 20.1124 248.624 21.1067 248.262 22.1011L240.669 43.253C239.855 45.6936 238.861 47.4111 237.686 48.4054C236.601 49.3997 234.929 49.8969 232.669 49.8969C230.319 49.8969 228.376 49.0833 226.839 47.4563C225.393 45.7388 223.72 42.8462 221.822 38.7786C219.653 34.5301 217.89 31.7279 216.534 30.372C215.178 29.0161 213.19 28.3382 210.568 28.3382C206.862 28.3382 203.292 30.6432 199.857 35.2532C196.422 39.7729 193.303 46.5975 190.501 55.7272C188.151 63.4106 186.976 69.8285 186.976 74.9809C186.976 79.5006 187.834 82.8903 189.552 85.1501C191.269 87.3195 193.574 88.4043 196.467 88.4043C200.715 88.4043 204.195 87.4551 206.907 85.5569C209.709 83.6586 212.557 81.0824 215.449 77.8283C217.257 75.8396 218.704 74.3934 219.788 73.4894C220.963 72.4951 222.184 71.9979 223.449 71.9979C225.076 71.9979 226.794 72.8115 228.602 74.4386C230.409 76.0656 231.268 77.6927 231.178 79.3198C231.268 81.3084 229.641 84.3818 226.297 88.5398C223.042 92.6979 218.478 96.4492 212.602 99.7938C206.817 103.048 200.218 104.675 192.806 104.675Z" fill="white"/>
<path d="M337.428 13.0166C341.224 13.0166 344.388 14.2369 346.919 16.6775C349.45 19.1181 350.716 22.4174 350.716 26.5755C350.716 31.2759 349.315 35.0724 346.512 37.965C343.71 40.8576 340.366 42.3039 336.479 42.3039C333.948 42.3039 331.778 41.8519 329.97 40.948C328.163 40.0441 326.445 38.5978 324.818 36.6091L313.157 46.3716L326.31 85.2857C327.123 87.5455 327.982 89.3534 328.886 90.7093C329.88 92.0652 331.055 93.4211 332.411 94.777C333.405 95.7713 334.083 96.5848 334.445 97.2176C334.897 97.7599 335.123 98.4379 335.123 99.2514C335.123 100.698 334.445 101.828 333.089 102.641C331.824 103.455 329.564 103.861 326.31 103.861H308.547C304.118 103.861 300.819 102.912 298.649 101.014C296.57 99.0254 294.853 95.7713 293.497 91.2516L286.717 68.4726L282.785 71.7268L278.311 87.8619C277.949 89.037 277.769 90.1669 277.769 91.2516C277.769 92.3363 277.904 93.2403 278.175 93.9634C278.537 94.6866 279.034 95.4549 279.667 96.2684C280.48 97.4435 280.887 98.3927 280.887 99.1158C280.887 99.2966 280.797 99.7486 280.616 100.472C280.254 101.737 279.441 102.641 278.175 103.183C276.91 103.635 275.012 103.861 272.481 103.861H240.617C238.719 103.861 237.273 103.545 236.278 102.912C235.194 102.28 234.651 101.421 234.651 100.336C234.651 99.7938 234.787 99.2062 235.058 98.5735C235.42 97.5791 236.007 96.8108 236.821 96.2684C237.634 95.7261 238.131 95.4097 238.312 95.3193C239.758 94.4154 240.933 93.5115 241.837 92.6075C242.741 91.6132 243.51 90.0313 244.142 87.8619L260.684 29.4229C261.046 28.2478 261.227 27.1179 261.227 26.0332C261.227 25.0388 261.046 24.2253 260.684 23.5925C260.413 22.8694 260.006 22.0559 259.464 21.1519C258.65 19.9768 258.244 19.0277 258.244 18.3046C258.244 18.0334 258.334 17.5362 258.515 16.8131C258.876 15.638 259.645 14.8244 260.82 14.3725C262.085 13.8301 263.984 13.5589 266.515 13.5589H298.378C300.276 13.5589 301.723 13.8753 302.717 14.5081C303.802 15.0504 304.344 15.864 304.344 16.9487C304.344 17.4006 304.209 17.9882 303.937 18.7113C303.666 19.3441 303.259 19.9316 302.717 20.474C302.265 20.926 301.813 21.2875 301.361 21.5587C301 21.7395 300.728 21.9203 300.548 22.1011C299.101 22.9146 297.926 23.8185 297.022 24.8129C296.118 25.8072 295.35 27.3439 294.717 29.4229L289.022 49.6257L324.954 18.5757C327.304 16.5871 329.428 15.186 331.326 14.3725C333.225 13.4685 335.258 13.0166 337.428 13.0166Z" fill="white"/>
<path d="M364.018 23.3214C364.651 9.85282 371.476 3.11856 384.492 3.11856C389.464 3.11856 393.306 4.20327 396.017 6.3727C398.82 8.54212 400.221 11.5703 400.221 15.4572C400.221 19.4345 398.82 23.9541 396.017 29.0161L374.73 66.9811C373.645 69.0602 372.515 70.5517 371.34 71.4556C370.255 72.2691 368.899 72.6759 367.272 72.6759C363.747 72.6759 362.075 70.5517 362.256 66.3032L364.018 23.3214ZM363.611 76.4724C367.227 76.4724 370.255 77.6927 372.696 80.1333C375.227 82.5739 376.492 85.5569 376.492 89.0822C376.492 91.5228 375.815 93.9182 374.459 96.2684C373.193 98.6186 371.385 100.562 369.035 102.099C366.775 103.545 364.199 104.268 361.306 104.268C357.781 104.268 354.798 103.048 352.358 100.607C349.917 98.1667 348.651 95.1837 348.561 91.6584C348.561 89.2178 349.194 86.8224 350.459 84.4722C351.725 82.1219 353.487 80.2237 355.747 78.7774C358.097 77.2407 360.719 76.4724 363.611 76.4724Z" fill="white"/>
</svg>
